<svg xmlns="http://www.w3.org/2000/svg" viewBox="0 0 880 602" width="880" height="602" role="img" aria-labelledby="t d" font-family="'Space Grotesk',ui-sans-serif,system-ui,-apple-system,'Segoe UI',Roboto,sans-serif">
<title id="t">TemaSuite architecture</title>
<desc id="d">TemaSuite architecture, top to bottom: property managers · guests · otas; angular pwa; laravel api; domain services; accounting &amp; finance; data &amp; events; multi-company &amp; delivery.</desc>
<defs>
<linearGradient id="field" x1="0" y1="0" x2="1" y2="1">
  <stop offset="0" stop-color="#05060f"/>
  <stop offset="0.55" stop-color="#080a17"/>
  <stop offset="1" stop-color="#0e1020"/>
</linearGradient>
<radialGradient id="halo" cx="0.5" cy="0.5" r="0.5">
  <stop offset="0" stop-color="#915eff" stop-opacity="0.30"/>
  <stop offset="1" stop-color="#915eff" stop-opacity="0"/>
</radialGradient>
<linearGradient id="rim" x1="0" y1="0" x2="1" y2="0">
  <stop offset="0" stop-color="#22d3ee"/>
  <stop offset="0.52" stop-color="#915eff"/>
  <stop offset="1" stop-color="#f272c8"/>
</linearGradient>
</defs>
<rect width="880" height="602" rx="14" fill="url(#field)"/>
<g stroke="#262a4d" stroke-width="1" opacity="0.16"><path d="M48 0V602"/><path d="M96 0V602"/><path d="M144 0V602"/><path d="M192 0V602"/><path d="M240 0V602"/><path d="M288 0V602"/><path d="M336 0V602"/><path d="M384 0V602"/><path d="M432 0V602"/><path d="M480 0V602"/><path d="M528 0V602"/><path d="M576 0V602"/><path d="M624 0V602"/><path d="M672 0V602"/><path d="M720 0V602"/><path d="M768 0V602"/><path d="M816 0V602"/><path d="M864 0V602"/><path d="M0 48H880"/><path d="M0 96H880"/><path d="M0 144H880"/><path d="M0 192H880"/><path d="M0 240H880"/><path d="M0 288H880"/><path d="M0 336H880"/><path d="M0 384H880"/><path d="M0 432H880"/><path d="M0 480H880"/><path d="M0 528H880"/><path d="M0 576H880"/></g>
<rect width="880" height="602" rx="14" fill="none" stroke="#262a4d" stroke-width="1.5"/>
<text x="440" y="30" text-anchor="middle" font-family="'IBM Plex Mono',ui-monospace,SFMono-Regular,Menlo,Consolas,monospace" font-size="11.5" letter-spacing="0.2em" fill="#8683a8">TEMASUITE ARCHITECTURE</text>
<g>
  <path d="M440 103V121" stroke="#343963" stroke-width="1.5"/>
  <path d="M436 115L440 121L444 115" fill="none" stroke="#343963" stroke-width="1.5" stroke-linecap="round"/>
  <circle cx="440" cy="103" r="2.6" fill="#22d3ee" opacity="0">
    <animate attributeName="cy" from="103" to="121" dur="2.4s" begin="0s" repeatCount="indefinite"/>
    <animate attributeName="opacity" values="0;1;1;0" dur="2.4s" begin="0s" repeatCount="indefinite"/>
  </circle>
</g>
<g>
  <path d="M440 181V199" stroke="#343963" stroke-width="1.5"/>
  <path d="M436 193L440 199L444 193" fill="none" stroke="#343963" stroke-width="1.5" stroke-linecap="round"/>
  <circle cx="440" cy="181" r="2.6" fill="#22d3ee" opacity="0">
    <animate attributeName="cy" from="181" to="199" dur="2.4s" begin="0.28s" repeatCount="indefinite"/>
    <animate attributeName="opacity" values="0;1;1;0" dur="2.4s" begin="0.28s" repeatCount="indefinite"/>
  </circle>
</g>
<g>
  <path d="M440 259V277" stroke="#343963" stroke-width="1.5"/>
  <path d="M436 271L440 277L444 271" fill="none" stroke="#343963" stroke-width="1.5" stroke-linecap="round"/>
  <circle cx="440" cy="259" r="2.6" fill="#22d3ee" opacity="0">
    <animate attributeName="cy" from="259" to="277" dur="2.4s" begin="0.56s" repeatCount="indefinite"/>
    <animate attributeName="opacity" values="0;1;1;0" dur="2.4s" begin="0.56s" repeatCount="indefinite"/>
  </circle>
</g>
<g>
  <path d="M440 337V355" stroke="#343963" stroke-width="1.5"/>
  <path d="M436 349L440 355L444 349" fill="none" stroke="#343963" stroke-width="1.5" stroke-linecap="round"/>
  <circle cx="440" cy="337" r="2.6" fill="#b18cff" opacity="0">
    <animate attributeName="cy" from="337" to="355" dur="2.4s" begin="0.84s" repeatCount="indefinite"/>
    <animate attributeName="opacity" values="0;1;1;0" dur="2.4s" begin="0.84s" repeatCount="indefinite"/>
  </circle>
</g>
<g>
  <path d="M440 415V433" stroke="#343963" stroke-width="1.5"/>
  <path d="M436 427L440 433L444 427" fill="none" stroke="#343963" stroke-width="1.5" stroke-linecap="round"/>
  <circle cx="440" cy="415" r="2.6" fill="#b18cff" opacity="0">
    <animate attributeName="cy" from="415" to="433" dur="2.4s" begin="1.12s" repeatCount="indefinite"/>
    <animate attributeName="opacity" values="0;1;1;0" dur="2.4s" begin="1.12s" repeatCount="indefinite"/>
  </circle>
</g>
<g>
  <path d="M440 493V511" stroke="#343963" stroke-width="1.5"/>
  <path d="M436 505L440 511L444 505" fill="none" stroke="#343963" stroke-width="1.5" stroke-linecap="round"/>
  <circle cx="440" cy="493" r="2.6" fill="#f272c8" opacity="0">
    <animate attributeName="cy" from="493" to="511" dur="2.4s" begin="1.4s" repeatCount="indefinite"/>
    <animate attributeName="opacity" values="0;1;1;0" dur="2.4s" begin="1.4s" repeatCount="indefinite"/>
  </circle>
</g>
<g>
  <rect x="60" y="46" width="760" height="54" rx="10" fill="#171a33" fill-opacity="0.55" stroke="#343963"/>
  <rect x="60" y="56" width="3" height="34" rx="1.5" fill="#22d3ee"/>
  <text x="82" y="70" font-family="'IBM Plex Mono',ui-monospace,SFMono-Regular,Menlo,Consolas,monospace" font-size="13.5" letter-spacing="0.06em" fill="#f4f4fb">PROPERTY MANAGERS · GUESTS · OTAs</text>
  <text x="82" y="90" font-family="'Space Grotesk',ui-sans-serif,system-ui,-apple-system,'Segoe UI',Roboto,sans-serif" font-size="12.5" fill="#8683a8">Back office, online check-in, external booking channels</text>
</g>
<g>
  <rect x="60" y="124" width="760" height="54" rx="10" fill="#171a33" fill-opacity="0.55" stroke="#343963"/>
  <rect x="60" y="134" width="3" height="34" rx="1.5" fill="#22d3ee"/>
  <text x="82" y="148" font-family="'IBM Plex Mono',ui-monospace,SFMono-Regular,Menlo,Consolas,monospace" font-size="13.5" letter-spacing="0.06em" fill="#f4f4fb">ANGULAR PWA</text>
  <text x="82" y="168" font-family="'Space Grotesk',ui-sans-serif,system-ui,-apple-system,'Segoe UI',Roboto,sans-serif" font-size="12.5" fill="#8683a8">Angular 21 · PrimeNG · service worker · offline-capable shell</text>
</g>
<g>
  <rect x="60" y="202" width="760" height="54" rx="10" fill="#171a33" fill-opacity="0.55" stroke="#343963"/>
  <rect x="60" y="212" width="3" height="34" rx="1.5" fill="#b18cff"/>
  <text x="82" y="226" font-family="'IBM Plex Mono',ui-monospace,SFMono-Regular,Menlo,Consolas,monospace" font-size="13.5" letter-spacing="0.06em" fill="#f4f4fb">LARAVEL API</text>
  <text x="82" y="246" font-family="'Space Grotesk',ui-sans-serif,system-ui,-apple-system,'Segoe UI',Roboto,sans-serif" font-size="12.5" fill="#8683a8">PHP 8.3 · token authentication · roles and permissions</text>
</g>
<g>
  <rect x="60" y="280" width="760" height="54" rx="10" fill="#171a33" fill-opacity="0.55" stroke="#343963"/>
  <rect x="60" y="290" width="3" height="34" rx="1.5" fill="#b18cff"/>
  <text x="82" y="304" font-family="'IBM Plex Mono',ui-monospace,SFMono-Regular,Menlo,Consolas,monospace" font-size="13.5" letter-spacing="0.06em" fill="#f4f4fb">DOMAIN SERVICES</text>
  <text x="82" y="324" font-family="'Space Grotesk',ui-sans-serif,system-ui,-apple-system,'Segoe UI',Roboto,sans-serif" font-size="12.5" fill="#8683a8">Reservations · rates · channel manager · price advisor · online check-in</text>
</g>
<g>
  <rect x="60" y="358" width="760" height="54" rx="10" fill="#171a33" fill-opacity="0.55" stroke="#343963"/>
  <rect x="60" y="368" width="3" height="34" rx="1.5" fill="#915eff"/>
  <text x="82" y="382" font-family="'IBM Plex Mono',ui-monospace,SFMono-Regular,Menlo,Consolas,monospace" font-size="13.5" letter-spacing="0.06em" fill="#f4f4fb">ACCOUNTING &amp; FINANCE</text>
  <text x="82" y="402" font-family="'Space Grotesk',ui-sans-serif,system-ui,-apple-system,'Segoe UI',Roboto,sans-serif" font-size="12.5" fill="#8683a8">Invoicing · bank reconciliation · city tax · revenue recognition</text>
</g>
<g>
  <rect x="60" y="436" width="760" height="54" rx="10" fill="#171a33" fill-opacity="0.55" stroke="#343963"/>
  <rect x="60" y="446" width="3" height="34" rx="1.5" fill="#f272c8"/>
  <text x="82" y="460" font-family="'IBM Plex Mono',ui-monospace,SFMono-Regular,Menlo,Consolas,monospace" font-size="13.5" letter-spacing="0.06em" fill="#f4f4fb">DATA &amp; EVENTS</text>
  <text x="82" y="480" font-family="'Space Grotesk',ui-sans-serif,system-ui,-apple-system,'Segoe UI',Roboto,sans-serif" font-size="12.5" fill="#8683a8">Relational store · activity log · outbox pattern · feature flags</text>
</g>
<g>
  <rect x="60" y="514" width="760" height="54" rx="10" fill="#171a33" fill-opacity="0.55" stroke="#343963"/>
  <rect x="60" y="524" width="3" height="34" rx="1.5" fill="#ff8a3d"/>
  <text x="82" y="538" font-family="'IBM Plex Mono',ui-monospace,SFMono-Regular,Menlo,Consolas,monospace" font-size="13.5" letter-spacing="0.06em" fill="#f4f4fb">MULTI-COMPANY &amp; DELIVERY</text>
  <text x="82" y="558" font-family="'Space Grotesk',ui-sans-serif,system-ui,-apple-system,'Segoe UI',Roboto,sans-serif" font-size="12.5" fill="#8683a8">Per-owner runtime context · automated tests · controlled deploy</text>
</g>
</svg>
